<svg xmlns="http://www.w3.org/2000/svg" version="1.1" xmlns:xlink="http://www.w3.org/1999/xlink" xmlns:svgjs="http://svgjs.dev/svgjs" width="2000" height="2250" viewBox="0 0 2000 2250"><g transform="matrix(1,0,0,1,0.0011525275272106228,0)"><svg viewBox="0 0 320 360" data-background-color="#ffffff" preserveAspectRatio="xMidYMid meet" height="2250" width="2000" xmlns="http://www.w3.org/2000/svg" xmlns:xlink="http://www.w3.org/1999/xlink"><g id="tight-bounds" transform="matrix(1,0,0,1,0.00018440440442191175,0)"><svg viewBox="0 0 320 360" height="360" width="320"><g><svg></svg></g><g><svg viewBox="0 0 320 360" height="360" width="320"><g><path d="M294.684 112.125c-8.775-10.699-25.381-16.201-43-22.006-7.56-2.498-15.357-5.097-22.985-8.235-7.695-3.173-15.256-7.257-22.613-11.172-14.952-8.033-30.41-16.336-46.105-16.336-15.661 0-31.119 8.303-46.071 16.336-7.358 3.949-14.952 8.033-22.648 11.205-7.594 3.139-15.425 5.704-22.985 8.236-17.618 5.839-34.224 11.341-42.999 22.006-11.712 14.277-11.442 35.439-11.172 57.817 0.034 3.375 0.068 6.717 0.067 10.024 0 3.308-0.034 6.649-0.101 10.024-0.27 22.411-0.54 43.54 11.172 57.851 8.775 10.666 25.381 16.167 42.966 22.006 7.56 2.498 15.357 5.097 23.019 8.235 7.695 3.173 15.256 7.223 22.579 11.172 14.986 8.067 30.444 16.37 46.105 16.37 15.695 0 31.153-8.303 46.105-16.336 7.358-3.949 14.918-8.033 22.614-11.172 7.594-3.139 15.357-5.704 22.884-8.202 17.72-5.873 34.326-11.374 43.101-22.039 11.712-14.277 11.442-35.439 11.171-57.817-0.034-3.409-0.101-6.75-0.101-10.058 0-3.308 0.034-6.649 0.101-9.991 0.371-22.479 0.641-43.641-11.104-57.918zM305.552 103.215c-15.728-19.171-45.801-23.727-71.486-34.326-22.985-9.45-46.375-28.588-74.051-28.587-27.676 0-51.066 19.137-74.052 28.587-25.719 10.598-55.758 15.155-71.486 34.326-17.078 20.791-14.311 50.121-14.311 76.785 0 26.63-2.768 55.994 14.277 76.785 15.728 19.171 45.801 23.727 71.487 34.326 22.985 9.484 46.375 28.588 74.051 28.587 27.676 0 51.066-19.103 74.051-28.587 25.719-10.598 55.758-15.155 71.486-34.326 17.045-20.791 14.277-50.121 14.277-76.785 0.068-26.664 2.835-55.994-14.243-76.785zM309.872 189.923c0.304 23.221 0.574 45.059-12.083 60.483-9.518 11.577-26.664 17.281-44.822 23.289-7.56 2.498-15.29 5.063-22.715 8.134-7.493 3.071-14.952 7.088-22.175 10.969-15.458 8.303-31.355 16.842-48.062 16.842-16.707 0-32.604-8.539-47.995-16.808-7.257-3.915-14.75-7.932-22.243-11.003-7.527-3.105-15.256-5.67-22.748-8.134-18.192-6.008-35.338-11.712-44.823-23.289-12.623-15.391-12.353-37.262-12.083-60.415 0.034-3.375 0.101-6.683 0.101-9.991 0-3.308-0.034-6.615-0.067-9.991-0.304-23.154-0.574-45.025 12.083-60.415 9.518-11.577 26.664-17.247 44.822-23.289 7.527-2.498 15.256-5.063 22.749-8.134 7.493-3.105 14.986-7.122 22.242-11.003 15.391-8.269 31.322-16.842 47.995-16.842 16.673 0 32.604 8.539 47.995 16.808 7.257 3.915 14.75 7.932 22.243 11.003 7.493 3.105 15.256 5.637 22.715 8.134 18.158 6.008 35.338 11.712 44.822 23.289 12.657 15.425 12.387 37.262 12.083 60.416-0.034 3.409-0.101 6.717-0.101 9.99 0 3.308 0.034 6.615 0.067 9.957z" fill="#2c3ad1" fill-rule="nonzero" stroke="none" stroke-width="1" stroke-linecap="butt" stroke-linejoin="miter" stroke-miterlimit="10" stroke-dasharray="" stroke-dashoffset="0" font-family="none" font-weight="none" font-size="none" text-anchor="none" style="mix-blend-mode: normal" data-fill-palette-color="tertiary"></path></g><g transform="matrix(1,0,0,1,64,160.52888318356867)"><svg viewBox="0 0 192 38.942233632862646" height="38.942233632862646" width="192"><g><svg viewBox="0 0 192 38.942233632862646" height="38.942233632862646" width="192"><g><svg viewBox="0 0 192 38.942233632862646" height="38.942233632862646" width="192"><g id="textblocktransform"><svg viewBox="0 0 192 38.942233632862646" height="38.942233632862646" width="192" id="textblock"><g><svg viewBox="0 0 192 38.942233632862646" height="38.942233632862646" width="192"><g transform="matrix(1,0,0,1,0,0)"><svg width="192" viewBox="2.44 -37.11 190.18 38.57" height="38.942233632862646" data-palette-color="#ffffff"><path d="M14.65 0.78L3.91 0.78Q3.37 0.78 3.09 0.67 2.81 0.56 2.72 0.42 2.64 0.27 2.44-0.15L2.44-0.15 2.44-34.86Q2.44-35.4 2.45-35.64 2.47-35.89 2.54-36.22 2.61-36.55 2.77-36.68 2.93-36.82 3.22-36.91 3.52-37.01 3.96-37.01L3.96-37.01 13.96-37.01Q17.48-37.01 17.48-36.13L17.48-36.13 17.48-36.08Q17.38-27 17.38-22.56L17.38-22.56 24.24-36.84 29.3-36.82Q39.65-36.82 39.65-36.33L39.65-36.33Q39.65-36.23 39.55-36.23L39.55-36.23Q34.81-27.69 29.93-19.24L29.93-19.24 29.93-18.55 30.93-17.92 41.14-0.37Q41.14 0.02 40.58 0.49L40.58 0.49 24.9 0.49 17.92-13.13Q17.77-11.79 17.7-9.23 17.63-6.67 17.58-5.86L17.58-5.86 17.58-0.1Q17.41 0.78 14.65 0.78L14.65 0.78ZM42.43-12.16L42.43-12.16Q42.53-24.17 42.53-30.08L42.53-30.08 42.53-30.37Q42.53-30.54 42.48-31.58 42.43-32.62 42.43-33.35L42.43-33.35Q42.43-36.28 42.92-36.67L42.92-36.67Q43.04-36.67 43.28-36.65 43.53-36.62 43.65-36.62L43.65-36.62Q47.75-36.82 53.17-36.82L53.17-36.82 56.49-36.82Q56.69-36.79 57.02-36.66 57.35-36.52 57.47-36.52L57.47-36.52Q57.49-35.33 57.58-32.4 57.66-29.47 57.7-27.32 57.74-25.17 57.71-23.1L57.71-23.1 57.71-13.57Q57.71-12.67 57.76-12.11 57.81-11.55 57.99-10.79 58.18-10.03 58.65-9.66 59.13-9.28 59.86-9.28L59.86-9.28Q60.89-9.28 61.52-10.14 62.16-11.01 62.16-12.16L62.16-12.16 62.16-21.09Q62.13-22.73 62.19-26.25 62.25-29.76 62.2-31.74L62.2-31.74 62.2-33.5Q62.2-33.76 62.16-34.31 62.11-34.86 62.11-35.16L62.11-35.16 62.11-36.33Q62.18-36.89 62.74-37.01L62.74-37.01Q67.43-37.01 76.8-36.91L76.8-36.91 76.8-36.52 77.88-36.52Q77.68-31.32 77.68-24.41L77.68-24.41 77.68-18.95Q77.68-17.85 77.63-15.58 77.59-13.31 77.59-12.21L77.59-12.21Q77.59-9.03 76.58-6.59 75.58-4.15 73.95-2.66 72.31-1.17 69.99-0.22 67.67 0.73 65.31 1.1 62.94 1.46 60.2 1.46L60.2 1.46Q57.57 1.46 55.26 1.14 52.95 0.81 50.58-0.13 48.22-1.07 46.51-2.54 44.8-4 43.67-6.47 42.55-8.94 42.43-12.16ZM82.61 0.68L81.54 0.1 81.54-10.94Q81.49-16.99 81.93-34.03L81.93-34.03 81.93-36.04Q81.93-36.57 82.12-36.67L82.12-36.67 98.92-36.67Q99.16-36.67 99.91-34.81 100.65-32.96 101.72-30.04 102.78-27.12 103.22-26.03L103.22-26.03 106.64-17.09 106.64-26.56Q106.64-27.78 106.7-31.04 106.76-34.3 106.73-36.13L106.73-36.13Q106.73-36.82 110.64-36.82L110.64-36.82Q111.86-36.82 113.98-36.77 116.11-36.72 116.6-36.72L116.6-36.72 118.45-36.72Q118.84-36.72 118.84-36.57L118.84-36.57Q118.99-29.79 118.99-17.14L118.99-17.14 118.99-0.2Q118.82 0.44 117.43 0.44L117.43 0.44 116.79 0.44Q115.52 0.44 113.06 0.49 110.59 0.54 109.32 0.54L109.32 0.54 102.14 0.54Q101.8 0.42 100.73-2.54L100.73-2.54Q99.58-5.74 97.31-11.79 95.04-17.85 94.77-18.55L94.77-18.55Q94.77-17.11 94.75-14.26 94.72-11.4 94.72-9.96L94.72-9.96Q94.72-8.89 94.77-6.74 94.82-4.59 94.82-3.52L94.82-3.52 94.82-0.44Q94.82 0.68 93.84 0.68L93.84 0.68 82.61 0.68ZM118.84-36.52L118.84-36.62 118.84-36.52ZM120.55 0L120.55 0Q122.06-5.59 123.89-11.35 125.72-17.11 128.45-25.13 131.17-33.15 132.17-36.23L132.17-36.23Q132.46-36.72 132.56-36.82L132.56-36.82 136.66-36.82Q138.1-36.82 140.91-36.87 143.72-36.91 145.16-36.91L145.16-36.91 149.26-36.91Q149.63-36.91 149.87-36.9 150.11-36.89 150.46-36.84 150.8-36.79 151.01-36.69 151.21-36.6 151.36-36.4 151.51-36.21 151.51-35.94L151.51-35.94 162.76-0.27Q162.76 0.22 162.41 0.4 162.05 0.59 161.08 0.59L161.08 0.59 158.83 0.59Q157.85 0.59 155.93 0.61 154 0.63 153.02 0.63L153.02 0.63Q152.73 0.63 151.84 0.67 150.94 0.71 150.33 0.7 149.72 0.68 148.98 0.62 148.23 0.56 147.78 0.35 147.33 0.15 147.21-0.2L147.21-0.2 147.21-1.81Q146.97-3.03 146.35-4.05 145.74-5.08 145.06-5.08L145.06-5.08 136.66-5.08 135.39 0.1Q135.12 0.68 132.66 0.68L132.66 0.68 130.71 0.68Q129.66 0.68 127.58 0.76 125.51 0.83 124.46 0.83L124.46 0.83 123.77 0.83Q123.38 0.83 122.54 0.85 121.7 0.88 121.23 0.88L121.23 0.88Q121.04 0.68 120.55 0ZM139.45-23.29L137.49-14.82 138.18-13.67 139.79-13.67Q141.74-13.67 143.36-13.9 144.99-14.14 144.99-14.65L144.99-14.65 141.84-28.71Q141.4-28.71 140.65-27.05 139.91-25.39 139.45-23.29L139.45-23.29ZM164.2-32.62L164.2-32.62Q164.2-36.6 165.03-37.06L165.03-37.06Q165.27-37.01 165.71-37.01L165.71-37.01 166.49-37.01Q167.25-37.01 168.98-37.06 170.72-37.11 171.62-37.11L171.62-37.11Q175.09-37.11 177.22-36.83 179.36-36.55 179.63-35.79L179.63-35.79 179.34-10.6 179.87-10.6Q181.83-10.69 182.61-10.68 183.39-10.67 185.48-10.58 187.56-10.5 189.49-10.5L189.49-10.5Q191.08-10.5 191.85-10.31 192.62-10.13 192.62-9.57L192.62-9.57 192.62-0.2Q192.3 0.68 181.73 0.68L181.73 0.68 164.83 0.68Q164.25-0.17 164.25-2.05L164.25-2.05 164.25-8.98Q164.25-12.04 164.3-18.02 164.35-24 164.35-27.05L164.35-27.05Q164.35-27.61 164.27-29.54 164.2-31.47 164.2-32.62Z" opacity="1" transform="matrix(1,0,0,1,0,0)" fill="#ffffff" class="wordmark-text-0" data-fill-palette-color="quaternary" id="text-0"></path></svg></g></svg></g></svg></g></svg></g></svg></g></svg></g></svg></g><defs></defs></svg><rect width="320" height="360" fill="none" stroke="none" visibility="hidden"></rect></g></svg></g></svg>